<?xml version="1.0" encoding="utf-8"?>
<!-- Generator: Adobe Illustrator 26.5.2, SVG Export Plug-In . SVG Version: 6.00 Build 0)  -->
<svg version="1.1" id="Layer_1" xmlns="http://www.w3.org/2000/svg" xmlns:xlink="http://www.w3.org/1999/xlink" x="0px" y="0px"
	 viewBox="0 0 402.7 59.5" style="enable-background:new 0 0 402.7 59.5;" xml:space="preserve">
<style type="text/css">
	.st0{fill:#067DFF;}
	.st1{enable-background:new    ;}
</style>
<g id="Layer_1_00000178926012891846193750000000880561532231022724_">
	<g>
		<g>
			<polygon class="st0" points="16.1,36.4 32.8,58.4 35.5,58.4 18.8,36.4 			"/>
			<path class="st0" d="M39.8,32.4c2.6-1.4,4.6-3.4,6.1-5.9s2.3-5.4,2.3-8.7s-0.8-6.2-2.3-8.7s-3.6-4.4-6.1-5.8
				c-2.6-1.4-5.4-2.1-8.6-2.1h-29H1.1H0v57.4h2.2V3.2h29.1c2.7,0,5.2,0.6,7.5,1.8c2.2,1.2,4,2.9,5.3,5.1s2,4.7,2,7.7
				c0,2.9-0.7,5.5-2,7.7s-3.1,3.9-5.3,5.1s-4.7,1.8-7.5,1.8h-17v2.1h17C34.4,34.4,37.2,33.8,39.8,32.4z"/>
			<polygon class="st0" points="22,36.4 38.7,58.4 41.4,58.4 24.8,36.4 			"/>
			<path class="st0" d="M38.3,10.5c1.9,1.7,2.9,4.1,2.9,7.2s-1,5.5-2.9,7.2s-4.3,2.6-7.1,2.6h-17v2.1h17c2.3,0,4.3-0.5,6.1-1.5
				s3.3-2.4,4.4-4.1c1.1-1.8,1.6-3.9,1.6-6.4s-0.5-4.6-1.6-6.4S39.1,8,37.3,7.1c-1.8-1-3.9-1.5-6.1-1.5H6.9H4.7v52.6h2.2V7.9h24.3
				C34,7.9,36.4,8.8,38.3,10.5z"/>
			<polygon class="st0" points="28.2,36.4 44.6,58.4 47.3,58.4 31,36.4 			"/>
			<path class="st0" d="M34.9,13.8c1,0.8,1.5,2.1,1.5,3.9c0,1.8-0.5,3.1-1.5,3.9s-2.3,1.2-3.7,1.2h-17V25h17c2.1,0,3.8-0.6,5.3-1.9
				c1.5-1.2,2.2-3.1,2.2-5.4s-0.7-4.2-2.2-5.4c-1.4-1.2-3.2-1.8-5.3-1.8H11.7H9.5v47.9h2.2V12.6h19.6C32.7,12.6,33.9,13,34.9,13.8z"
				/>
		</g>
		<g>
			<path class="st0" d="M131.3,2.1c15.4,0,28,12.4,28,27.7s-12.6,27.7-28,27.7s-28-12.4-28-27.7S115.9,2.1,131.3,2.1 M131.3,0
				c-16.6,0-30.1,13.3-30.1,29.7s13.5,29.7,30.1,29.7s30.1-13.3,30.1-29.7S148,0,131.3,0L131.3,0z"/>
			<path class="st0" d="M131.3,6.8c12.8,0,23.2,10.3,23.2,23s-10.4,23-23.2,23s-23.2-10.3-23.2-23S118.5,6.8,131.3,6.8 M131.3,4.7
				c-14,0-25.3,11.2-25.3,25s11.3,25,25.3,25s25.3-11.2,25.3-25S145.3,4.7,131.3,4.7L131.3,4.7z"/>
			<path class="st0" d="M131.3,11.5c10.2,0,18.5,8.2,18.5,18.2S141.5,48,131.3,48s-18.5-8.2-18.5-18.2S121.1,11.5,131.3,11.5
				 M131.3,9.4c-11.4,0-20.6,9.1-20.6,20.3S119.9,50,131.3,50s20.6-9.1,20.6-20.3S142.7,9.4,131.3,9.4L131.3,9.4z"/>
		</g>
		<g>
			<path class="st0" d="M131.3,2.1c15.4,0,28,12.4,28,27.7s-12.6,27.7-28,27.7s-28-12.4-28-27.7S115.9,2.1,131.3,2.1 M131.3,0
				c-16.6,0-30.1,13.3-30.1,29.7s13.5,29.7,30.1,29.7s30.1-13.3,30.1-29.7S148,0,131.3,0L131.3,0z"/>
			<path class="st0" d="M131.3,6.8c12.8,0,23.2,10.3,23.2,23s-10.4,23-23.2,23s-23.2-10.3-23.2-23S118.5,6.8,131.3,6.8 M131.3,4.7
				c-14,0-25.3,11.2-25.3,25s11.3,25,25.3,25s25.3-11.2,25.3-25S145.3,4.7,131.3,4.7L131.3,4.7z"/>
			<path class="st0" d="M131.3,11.5c10.2,0,18.5,8.2,18.5,18.2S141.5,48,131.3,48s-18.5-8.2-18.5-18.2S121.1,11.5,131.3,11.5
				 M131.3,9.4c-11.4,0-20.6,9.1-20.6,20.3S119.9,50,131.3,50s20.6-9.1,20.6-20.3S142.7,9.4,131.3,9.4L131.3,9.4z"/>
		</g>
		<g>
			<polygon class="st0" points="52.3,1.1 50,1.1 68.2,54.9 69.4,51.6 			"/>
			<g>
				<polygon class="st0" points="89.4,1.1 69.8,58.4 72.1,58.4 91.7,1.1 				"/>
				<polygon class="st0" points="57.3,1.1 55,1.1 70.7,47.6 71.9,44.2 				"/>
				<polygon class="st0" points="94.4,1.1 74.8,58.4 77.2,58.4 96.7,1.1 				"/>
				<path class="st0" d="M62.3,1.1H60l13.2,39.1l1.2-3.3L62.3,1.1z M99.4,1.1L79.9,58.4h2.3L101.8,1h-2.4V1.1z"/>
			</g>
		</g>
		<g>
			<polygon class="st0" points="210.8,27.6 175.1,27.6 175.1,2.6 172,2.6 172,58.1 175.1,58.1 175.1,30.5 210.8,30.5 210.8,58.1 
				213.9,58.1 213.9,2.6 210.8,2.6 			"/>
			<path class="st0" d="M238.8,17.6c-11.5,0-20.5,9.1-20.5,20.6c0,11.3,9.2,20.5,20.5,20.5c7.4,0,14.5-3.7,18.4-9.6l0.4-0.6h-3.9
				l-0.1,0.1c-3.4,4.4-9.1,7.2-14.8,7.2c-9.6,0-17.2-7.4-17.4-17H259v-1.1C258.7,26.1,250.2,17.6,238.8,17.6z M255.7,35.9h-34.2
				c1.3-8.8,8.7-15.4,17.3-15.4C247.5,20.5,254.4,26.8,255.7,35.9z"/>
			<path class="st0" d="M283.8,17.6c-5.4-0.1-10.8,2.1-14.8,6.1c-3.9,3.9-6.1,9.2-6,14.4c-0.1,5.2,2.1,10.5,6,14.4s9.1,6.1,14.4,6.1
				h0.4c7.1,0,13.9-3.9,17.6-10.1V58h3.1V38.2c0.1-5.3-2.1-10.5-6-14.5C294.5,19.7,289.2,17.5,283.8,17.6z M301.5,38.2
				c0,9.8-7.9,17.7-17.6,17.7c-9.8,0-17.8-7.9-17.8-17.7s8-17.7,17.8-17.7C293.6,20.5,301.5,28.4,301.5,38.2z"/>
			<rect x="310.1" y="2.6" class="st0" width="3.1" height="55.5"/>
			<path class="st0" d="M365.2,17.6c-6.9,0-11.5,2.4-14.7,7.6V2.6h-3.1v55.5h3.1V36.6c0-10.1,5.5-16.1,14.7-16.1s14.7,6.2,14.7,16.7
				v20.9h3.1V37.2C383,24.7,376.5,17.6,365.2,17.6z"/>
			<path class="st0" d="M341.2,54.5c-0.6,0.2-1.2,0.4-1.6,0.5c-1,0.2-2,0.3-3.1,0.3c-2.3,0-4.3-0.1-5.9-1.8
				c-1.5-1.5-1.5-2.8-1.5-5.3V21.4h12.2v-2.9h-12.2v-11h-3.3v11h-7.4v2.9h7.4v27.3c0,3.4,0.9,5.7,2.7,7.2c1.8,1.5,4.2,2.2,7.1,2.2
				c1.5,0,3-0.2,4.4-0.5c0.9-0.2,1.6-0.4,2.2-0.7l0.3-0.1l-0.8-2.5L341.2,54.5z"/>
		</g>
	</g>
	<g class="st1">
		<path class="st0" d="M388.6,1.8h-2v5.6h-1.3V1.8h-2v-1h5.3V1.8z M393.6,5.4l1.8-4.7h1.8v6.6H396V2.2h0l-2,5.2h-0.9l-2-5.2h0v5.2
			h-1.2V0.7h1.9L393.6,5.4z"/>
	</g>
</g>
<g id="Layer_2_00000149359095574013180910000010436775634537845173_">
</g>
</svg>
